<?xml version="1.0" encoding="UTF-8" standalone="no"?>
<svg version="1.1" xml:space="preserve" xmlns="http://www.w3.org/2000/svg" xmlns:svg="http://www.w3.org/2000/svg" viewBox="0 0 1000 1000">
	<link xmlns="http://www.w3.org/1999/xhtml" rel="stylesheet" href="../styles/popup.css" type="text/css" />
	<g class="gear">
		<path d="M828.8,861.8c-19,0-35-15.7-35-34.9c0-18.7,16-34.1,35-34.1c19.1,0,34.6,15.4,34.6,34.1C863.4,846.1,847.9,861.8,828.8,861.8z M881.7,782.4l-197-194.7c12.7-26.5,19.7-56.4,19.7-87.7c0-112.9-91.1-204.2-204.2-204.2c-18.8,0-37.3,2.5-54.6,7.5l87.5,87c36.2,36.6,33.4,97.6-5.9,136.8C488,566.2,426.6,569,390.4,533l-87.3-87.7c-4.8,17.5-7.3,35.8-7.3,54.8c0,113.3,91.5,204.9,204.3,204.9c31.1,0,61.1-7.1,87.5-19.9l196.1,195c25,24.6,66.8,23.1,93.7-4.1C904.2,849.1,906,807,881.7,782.4z"/>
		<path d="M928.8,409.3H909l-46.5-0.3h-0.3c-9.4-0.9-18.3-4.3-26-9.2c-0.6,0-0.8-0.3-1.1-0.6c-16.4-10.8-27.5-29.8-27.2-51.1c0-6.7,1.4-12.8,3.5-19c1.8-6.7,5.2-13.2,9.7-18.8l10.3-10.5l23.2-22.8l13.7-13.9c19.8-25.7,19.8-62.5-0.8-88.2L827.6,134c-26.5-20.3-63.2-21-89.1-1.2L724,146.5l-32.3,33.3h-0.5c-17.6,14.2-41.9,16.9-62.1,8.1c-6.9-3.2-13.1-7.2-19.1-12.9c-9.6-10.3-15.5-22.8-17.2-36v-14.5V92v-20c-4-32.7-29.8-58.2-63.1-61.9h-56.8c-32.7,3.5-59,29.1-63.6,61.5l0,19.8v33.2v13.2v0.2c-0.2,1.7-0.8,3.6-0.9,5c0,0.2,0,0.6,0,0.6c-0.5,1.8-0.7,3.4-1,4.8c-0.6,0-0.6,0.6-0.6,0.6c-0.6,1.6-0.9,3.8-1.8,4.9l0,0c-0.5,1.9-1.5,3.4-2.3,4.9c0,0.3,0,0.3,0,0.3c-3.4,7.1-8.3,13.2-14.8,18.5c-10.4,8.9-24.5,14.4-39.7,14.4c-14.2,0-27.4-4.8-37.6-13.1l-10.3-10.5L277,145.7l-14.1-14.2c-25.8-19.7-62.5-19.7-88.1,0.9l-40.9,40.3c-20.6,25.6-20.9,62.4-1.2,88.6l14.1,13.9l33,32.8c0.6,1.1,1.1,1.9,1.7,2.8c0.4,0.3,0.9,1.2,1.7,2.2c0.5,0.6,0.9,1.9,1.5,2.7c0,0.2,1,1.3,1,1.9c0.6,0.9,1.3,2.3,2,3.4c0,0.6,0.2,1.3,0.5,1.9c0.7,0.9,0.9,2.3,1.7,3.6c0,0.3,0.1,0.9,0.3,1.6c0.2,1.9,1.2,3.4,1.2,5.3l0,0c0.5,1.9,0.9,3.7,0.9,5.5c2.6,18.2-3.4,36.9-17.5,50.8l0,0c-10,10.2-22.8,16.1-36,17.5h-14.4H91.9H72.2c-32.6,4.6-58.3,30.6-62,63L10,527.4c3.4,33,29,58.8,61.5,63.1h20l46.4,0.6c1.7,0.2,4,0.2,5.6,0.8c0.6,0,1.1,0,1.5,0c1.5,0.6,2.4,1.1,4,1.3c25.1,7.7,43.3,31.2,43.3,58.8c0,14.2-4.8,27.7-13.3,38.2l-10.2,9.9l-23.4,23l-13.9,13.9c-19.5,26.1-19.5,62.7,0.7,88.3l40.6,41c25.9,20.6,62.2,20.9,88.6,0.9l13.9-13.9l33.3-32.5c0-0.4,0.3-0.4,0.8-0.6c1.2-1.2,2.6-1.9,3.5-3.1c1.2-0.2,1.4-0.2,2.2-0.8c0.6-0.4,1.7-1.3,2.6-1.9c1.2-0.6,2.6-0.9,3.8-1.6c0.8-0.3,1.3-0.6,1.5-0.9c1.7-0.3,2.9-0.9,5.3-1.5l0,0c1.9-0.6,3.3-1.6,4.7-1.6c0.2,0,0.2,0,0.5,0c1.6-0.3,3.3-0.6,5.1-0.9h0.4c1.5,0,2.9,0,4.2-0.6c17-0.6,34.3,5.2,46.9,18.1c10.5,10.2,15.9,23.1,17.8,36.3l-0.2,14.4v32.3v19.7c4,33,30.1,58.8,62.8,62.1h57.4c32.9-3.4,58.7-28.9,63.2-61.2v-19.7l0.5-33.5v-13.2c1.2-12.1,5.6-21.9,12.1-30.7c0.6-0.9,1.3-1.6,1.9-2.2c0.4-0.3,0.9-1.5,1.8-1.9c3.7-4,7.7-7.6,12.2-10.7l0,0c1.4-0.2,2.8-1.3,3.7-1.9c1-0.6,0.9-0.6,1.4-0.6l0,0c0.6-0.2,1.1-0.2,1.2-0.2c1.2-0.9,2.2-0.9,3.4-1.6l-54.8-54.8c-23.9,7-49,10.4-74.9,10.4C350.8,768,231.2,647.7,231.8,499.8c0-148.6,120.7-268.6,269-268.2c148.1,0.6,267.6,120.9,267.4,269.1c-0.1,25.3-3.9,50.2-10.5,72.9l55.3,54.4c2.9-6.5,7.4-12.2,12.3-17.8c5.7-5.5,13.3-9.8,20.2-12.5c5.1-2.3,10.5-4,15.6-4.6h14.8h32.8h19.5c32.4-4.4,58.2-30.1,61.9-62.8v-57.8C986.6,440,961.2,413.8,928.8,409.3L928.8,409.3z"/>
	</g>
</svg>
